<?xml version="1.0" encoding="UTF-8"?>
<svg version="1.1" viewBox="0 0 2000 1534" width="2000" height="1534" xmlns="http://www.w3.org/2000/svg">
<path transform="translate(952,104)" d="m0 0h63l31 3 32 5 38 9 36 12 22 9 25 12 20 11 19 12 18 13 11 9 13 11 13 12 17 17 7 8 11 13 15 20 13 19 11 18 10 18 9 17 12 27 11 29 4 12v3l10 1 19 5 16 7 11 6 12 9 10 9 10 11 10 15 8 17 6 20 2 12v5l5-1h45l27 4 21 6 16 6 21 11 15 11 14 12 9 9 9 11 11 15 11 19 11 23 9 25 7 26 5 28 3 28v58l-4 38-6 33-6 26-9 30-6 18-9-2-39-12-48-12-41-8-49-7-31-3-35-2h-66l-34 2-39 4-41 6-40 8-44 11-42 13-31 11-39 16-26 12-27 13-22 12-25 14-21 13-39 26-18 13-17 13-16 13-11 9-14 12-14 11-16 12-30 20-19 11-23 12-22 10-28 10-24 7-27 6-28 4-24 2h-66l-52-3-32-4-30-6-30-8-29-10-29-12-29-14-27-15-22-14-12-8-14-10-16-12-14-11-13-11-14-12-30-28-17-17-2-3-4-29-2-27v-38l2-25 4-27 6-27 7-22 8-21 12-25 12-19 12-16 11-12 5-6 8-7 13-11 17-11 17-9 21-8 24-6 22-3h33l1-12 6-21 7-16 9-15 11-13 9-9 15-11 16-8 21-7 18-3h29l13 2-2-39v-26l2-34 4-32 7-35 7-25 9-27 11-26 12-24 10-17 12-18 14-19 12-14 9-10 14-15 8-7 13-12 14-11 13-10 24-16 15-9 22-12 25-12 28-11 33-11 40-10 35-6 26-3z" fill="#7AB03A"/>
<path transform="translate(924,483)" d="m0 0h61l31 3 30 5 31 7 29 9 25 9 29 13 25 13 20 12 18 12 19 14 11 9 13 11 13 12 20 20 7 8 11 13 15 20 16 24 8 13-2 5-14 17-12 14-16 17-13 13-8 7-12 11-11 9-15 12-18 13-15 10-21 13-18 10-23 12-28 12-28 10-23 7-29 7-29 5-27 3-15 1h-50l-35-3-36-6-30-7-29-9-27-10-20-9-21-10-23-13-21-13-20-14-21-16-13-11-8-7-10-9-13-12-10-10-7-8-11-12-11-14-10-13 2-5 9-15 13-19 13-17 9-11 9-10 7-8 24-24 11-9 9-8 17-13 20-14 21-13 24-13 25-12 28-11 31-10 28-7 26-5 32-4z" fill="#FEFEFE"/>
<path transform="translate(1499,978)" d="m0 0h40l43 2 42 4 41 6 37 7 14 3v1h-75l-38 2-41 4-41 6-36 7-38 9-35 10-36 12-32 12-35 15-38 18-22 12-23 13-19 12-18 12-14 10-17 13-11 9-15 13-15 14-71 71-8 7-10 9-11 9-18 14-18 13-23 15-21 13-23 13-23 12-16 8-28 13-36 14-31 10-32 8-36 6-27 3-15 1h-62l-33-3-33-5-33-7-28-8-30-10-29-12-28-13-24-13-23-14-25-17-21-16-11-9-13-11-13-12-28-28-7-8-11-13-13-17-14-19-11-17-12-20-12-22-11-22-4-9 1-3 12 15 9 11 12 14 14 15 14 14 11 9 9 8 17 13 19 14 26 17 22 13 18 10 17 9 33 15 26 10 33 11 26 7 35 7 29 4 24 2h54l33-3 36-6 34-8 29-9 26-9 29-12 34-16 28-15 28-17 19-12 17-12 19-14 17-14 14-11 15-12 17-13 15-12 18-13 17-12 19-12 18-10 23-12 40-19 29-13 38-15 41-14 35-10 32-8 45-9 40-6 37-4 29-2z" fill="#4B6FB4"/>
<path transform="translate(943,510)" d="m0 0h23l19 2 22 5 18 6 25 12 18 12 11 9 13 12 9 10 12 16 11 19 8 17 7 22 4 19 2 22v14l-2 22-5 24-7 20-9 19-12 19-13 16-19 19-16 12-15 9-16 8-18 7-24 6-15 2h-40l-19-3-19-5-16-6-17-8-16-10-13-10-10-9-7-6-7-8-11-14-10-16-9-17-9-25-5-23-2-20v-19l2-20 4-20 7-21 12-25 12-18 9-11 11-12 12-11 15-11 15-9 21-10 21-7 19-4z" fill="#484747"/>
<path transform="translate(1703,1018)" d="m0 0h13v1l-29 6-30 8-35 12-31 13-33 16-22 12-23 14-18 12-17 12-18 14-13 11-10 9-11 10-7 8-11 12-11 14-13 15-11 12-15 16-26 24-11 9-16 13-18 13-19 13-19 12-23 13-27 14-27 12-34 13-31 10-44 11-34 6-32 4-29 2h-54l-17-1-6-1 3-2 27-10 28-13 23-12 25-15 21-14 14-10 17-13 11-9 14-12 12-11 36-36 8-7 11-10 11-9 17-14 20-15 19-14 24-16 22-14 29-17 26-14 34-17 34-15 38-15 34-12 43-13 56-14 47-9 49-7 43-4z" fill="#4B6FB4"/>
<path transform="translate(253)" d="m0 0 3 1 13 29 16 34 28 56 12 22 16 29 15 25 14 23 28 42 13 19 10 13 13 19 9 15 11 21 8 21 6 21 4 21 2 23v15l-2 25-6 31-8 26-2-1-5-21-6-17-8-17-12-19-13-18-12-17-19-29-13-21-13-22-20-35v31l3 26 5 26 7 26 10 28 14 29 10 17 12 17 11 13 10 11 5 5-9-3-22-11-17-10-18-12-17-13-15-13-23-23-9-11-13-17-13-20-10-18-12-25-10-27-7-23-6-26-5-30-3-35v-45l3-36 4-28 7-35 8-30 12-36z" fill="#58832F"/>
<path transform="translate(288,510)" d="m0 0h27l19 3 21 6 21 9 17 10 15 11-2 1-14-5-9-2-20-1-20 2-21 5-17 6 34 6 22 6 14 4 7 1h9l16-2-6 8-11 10-15 10-14 6-12 3-7 1h-18l-23-4-30-7-30-5-32-3h-62l4-6 13-13 11-9 12-10 15-10 17-10 17-8 24-8 20-4z" fill="#58842F"/>
<path transform="translate(1683,262)" d="m0 0h2l-1 5-11 31-8 29-6 28-4 26-4 43-4 19-6 15-7 11-9 10-8 8-15 10-13 6h-2l2-5 5-10 3-10 1-8 1-30 3-23 3-16-7 8-10 15-9 16-8 21-3 17v21l-2-3-6-20-4-20-1-10v-26l3-20 4-15 6-16 10-19 9-13 8-10 11-12 9-9 11-9 13-10 19-12 23-12z" fill="#58832F"/>
<path transform="translate(1680,463)" d="m0 0h28l17 3 20 6 18 8-1 2-26 9-26 11-21 10-19 11-14 5-12 2-16-1-16-5-2-2 7-2 11-4 33-17 9-4-4-1-19 1-16 4-12 5-10 7-2 1 2-5 8-11 13-13 14-9 14-6 15-4z" fill="#59842F"/>
<path transform="translate(140,1113)" d="m0 0" fill="#4B6FB4"/>
<path transform="translate(139,1112)" d="m0 0" fill="#4B6FB4"/>
<path transform="translate(409,551)" d="m0 0" fill="#7AB03A"/>
<path transform="translate(408,550)" d="m0 0" fill="#7AB03A"/>
</svg>
